<mxfile host="app.diagrams.net" modified="2020-10-18T11:17:24.972Z" agent="5.0 (Windows NT 10.0; Win64; x64) AppleWebKit/537.36 (KHTML, like Gecko) Chrome/86.0.4240.75 Safari/537.36" etag="u-kXwWLXhQM--hsXi7Et" version="13.8.0" type="github">
  <diagram id="7wykjOYfBRTnQpJchJCY" name="ページ1">
    <mxGraphModel dx="1422" dy="762" grid="1" gridSize="10" guides="1" tooltips="1" connect="1" arrows="1" fold="1" page="1" pageScale="1" pageWidth="827" pageHeight="1169" math="0" shadow="0">
      <root>
        <mxCell id="0" />
        <mxCell id="1" parent="0" />
        <mxCell id="2GPm-SRTyEFYeH53jlEw-1" value="AWS Cloud" style="points=[[0,0],[0.25,0],[0.5,0],[0.75,0],[1,0],[1,0.25],[1,0.5],[1,0.75],[1,1],[0.75,1],[0.5,1],[0.25,1],[0,1],[0,0.75],[0,0.5],[0,0.25]];outlineConnect=0;gradientColor=none;html=1;whiteSpace=wrap;fontSize=12;fontStyle=0;shape=mxgraph.aws4.group;grIcon=mxgraph.aws4.group_aws_cloud_alt;strokeColor=#232F3E;fillColor=none;verticalAlign=top;align=left;spacingLeft=30;fontColor=#232F3E;dashed=0;" parent="1" vertex="1">
          <mxGeometry x="40" y="40" width="540" height="460" as="geometry" />
        </mxCell>
        <mxCell id="2GPm-SRTyEFYeH53jlEw-3" value="Region:Tokyo" style="points=[[0,0],[0.25,0],[0.5,0],[0.75,0],[1,0],[1,0.25],[1,0.5],[1,0.75],[1,1],[0.75,1],[0.5,1],[0.25,1],[0,1],[0,0.75],[0,0.5],[0,0.25]];outlineConnect=0;gradientColor=none;html=1;whiteSpace=wrap;fontSize=12;fontStyle=0;shape=mxgraph.aws4.group;grIcon=mxgraph.aws4.group_region;strokeColor=#147EBA;fillColor=none;verticalAlign=top;align=left;spacingLeft=30;fontColor=#147EBA;dashed=1;" parent="1" vertex="1">
          <mxGeometry x="60" y="80" width="500" height="400" as="geometry" />
        </mxCell>
        <mxCell id="2GPm-SRTyEFYeH53jlEw-4" value="vcp-group-b-bit&lt;br&gt;(10.1.0.0/16)" style="points=[[0,0],[0.25,0],[0.5,0],[0.75,0],[1,0],[1,0.25],[1,0.5],[1,0.75],[1,1],[0.75,1],[0.5,1],[0.25,1],[0,1],[0,0.75],[0,0.5],[0,0.25]];outlineConnect=0;gradientColor=none;html=1;whiteSpace=wrap;fontSize=12;fontStyle=0;shape=mxgraph.aws4.group;grIcon=mxgraph.aws4.group_vpc;strokeColor=#248814;fillColor=none;verticalAlign=top;align=left;spacingLeft=30;fontColor=#AAB7B8;dashed=0;" parent="1" vertex="1">
          <mxGeometry x="80" y="120" width="460" height="340" as="geometry" />
        </mxCell>
        <mxCell id="2GPm-SRTyEFYeH53jlEw-5" value="private-subnet-group-b-bit&lt;br&gt;(10.1.2.0/24)" style="points=[[0,0],[0.25,0],[0.5,0],[0.75,0],[1,0],[1,0.25],[1,0.5],[1,0.75],[1,1],[0.75,1],[0.5,1],[0.25,1],[0,1],[0,0.75],[0,0.5],[0,0.25]];outlineConnect=0;gradientColor=none;html=1;whiteSpace=wrap;fontSize=12;fontStyle=0;shape=mxgraph.aws4.group;grIcon=mxgraph.aws4.group_security_group;grStroke=0;strokeColor=#147EBA;fillColor=#E6F2F8;verticalAlign=top;align=left;spacingLeft=30;fontColor=#147EBA;dashed=0;" parent="1" vertex="1">
          <mxGeometry x="120" y="160" width="360" height="120" as="geometry" />
        </mxCell>
        <mxCell id="2GPm-SRTyEFYeH53jlEw-6" value="public-subnet-group-b-bit&lt;br&gt;(10.1.1.0/24)" style="points=[[0,0],[0.25,0],[0.5,0],[0.75,0],[1,0],[1,0.25],[1,0.5],[1,0.75],[1,1],[0.75,1],[0.5,1],[0.25,1],[0,1],[0,0.75],[0,0.5],[0,0.25]];outlineConnect=0;gradientColor=none;html=1;whiteSpace=wrap;fontSize=12;fontStyle=0;shape=mxgraph.aws4.group;grIcon=mxgraph.aws4.group_security_group;grStroke=0;strokeColor=#248814;fillColor=#E9F3E6;verticalAlign=top;align=left;spacingLeft=30;fontColor=#248814;dashed=0;" parent="1" vertex="1">
          <mxGeometry x="120" y="300" width="360" height="140" as="geometry" />
        </mxCell>
        <mxCell id="6bdvWAHxkDovJL6e0Xdg-12" style="edgeStyle=orthogonalEdgeStyle;rounded=0;orthogonalLoop=1;jettySize=auto;html=1;" edge="1" parent="1" source="2GPm-SRTyEFYeH53jlEw-12" target="6bdvWAHxkDovJL6e0Xdg-2">
          <mxGeometry relative="1" as="geometry" />
        </mxCell>
        <mxCell id="2GPm-SRTyEFYeH53jlEw-12" value="" style="outlineConnect=0;dashed=0;verticalLabelPosition=bottom;verticalAlign=top;align=center;html=1;shape=mxgraph.aws3.internet_gateway;fillColor=#F58534;gradientColor=none;" parent="1" vertex="1">
          <mxGeometry x="560" y="360" width="38.33" height="40" as="geometry" />
        </mxCell>
        <mxCell id="6bdvWAHxkDovJL6e0Xdg-4" style="edgeStyle=orthogonalEdgeStyle;rounded=0;orthogonalLoop=1;jettySize=auto;html=1;entryX=0;entryY=0.5;entryDx=0;entryDy=0;entryPerimeter=0;" edge="1" parent="1" source="6bdvWAHxkDovJL6e0Xdg-2" target="2GPm-SRTyEFYeH53jlEw-12">
          <mxGeometry relative="1" as="geometry" />
        </mxCell>
        <mxCell id="6bdvWAHxkDovJL6e0Xdg-34" style="edgeStyle=orthogonalEdgeStyle;rounded=0;orthogonalLoop=1;jettySize=auto;html=1;" edge="1" parent="1" source="6bdvWAHxkDovJL6e0Xdg-2" target="6bdvWAHxkDovJL6e0Xdg-8">
          <mxGeometry relative="1" as="geometry" />
        </mxCell>
        <mxCell id="6bdvWAHxkDovJL6e0Xdg-2" value="" style="outlineConnect=0;fontColor=#232F3E;gradientColor=none;fillColor=#D86613;strokeColor=none;dashed=0;verticalLabelPosition=bottom;verticalAlign=top;align=center;html=1;fontSize=12;fontStyle=0;aspect=fixed;pointerEvents=1;shape=mxgraph.aws4.t2_instance;" vertex="1" parent="1">
          <mxGeometry x="320" y="360" width="40" height="40" as="geometry" />
        </mxCell>
        <mxCell id="6bdvWAHxkDovJL6e0Xdg-6" value="&lt;font color=&quot;#00cc00&quot;&gt;54.199.62.44(Elastic IP)&lt;br&gt;&lt;/font&gt;10.1.1.180(Private IP)" style="text;html=1;strokeColor=none;fillColor=none;align=center;verticalAlign=middle;whiteSpace=wrap;rounded=0;" vertex="1" parent="1">
          <mxGeometry x="180" y="360" width="140" height="40" as="geometry" />
        </mxCell>
        <mxCell id="6bdvWAHxkDovJL6e0Xdg-35" style="edgeStyle=orthogonalEdgeStyle;rounded=0;orthogonalLoop=1;jettySize=auto;html=1;" edge="1" parent="1" source="6bdvWAHxkDovJL6e0Xdg-8" target="6bdvWAHxkDovJL6e0Xdg-2">
          <mxGeometry relative="1" as="geometry" />
        </mxCell>
        <mxCell id="6bdvWAHxkDovJL6e0Xdg-8" value="" style="outlineConnect=0;fontColor=#232F3E;gradientColor=none;fillColor=#D86613;strokeColor=none;dashed=0;verticalLabelPosition=bottom;verticalAlign=top;align=center;html=1;fontSize=12;fontStyle=0;aspect=fixed;pointerEvents=1;shape=mxgraph.aws4.t2_instance;" vertex="1" parent="1">
          <mxGeometry x="320" y="200" width="40" height="40" as="geometry" />
        </mxCell>
        <mxCell id="6bdvWAHxkDovJL6e0Xdg-33" value="10.1.2.177(Private IP)" style="text;html=1;strokeColor=none;fillColor=none;align=center;verticalAlign=middle;whiteSpace=wrap;rounded=0;" vertex="1" parent="1">
          <mxGeometry x="180" y="200" width="140" height="40" as="geometry" />
        </mxCell>
      </root>
    </mxGraphModel>
  </diagram>
</mxfile>
